<svg xmlns="http://www.w3.org/2000/svg" viewBox="0 0 512 512"><ellipse style="fill:#b90504;fill-opacity:1;stroke:#333;stroke-width:4.6436;stroke-miterlimit:10;stroke-dashoffset:113.386" cx="255.238" cy="255.959" rx="227.388" ry="217.579"/><rect style="fill:#f6f6f6;fill-opacity:1;stroke:#333;stroke-width:2.29502;stroke-miterlimit:10;stroke-dashoffset:113.386" width="308.111" height="238.261" x="102.401" y="166.457" ry="63.677"/><path fill="#154F92" d="M256 48c114.953 0 208 93.029 208 208 0 114.953-93.029 208-208 208-114.953 0-208-93.029-208-208 0-114.953 93.029-208 208-208m0-40C119.033 8 8 119.033 8 256s111.033 248 248 248 248-111.033 248-248S392.967 8 256 8zm0 56C149.961 64 64 149.961 64 256s85.961 192 192 192 192-85.961 192-192S362.039 64 256 64zm0 44c19.882 0 36 16.118 36 36s-16.118 36-36 36-36-16.118-36-36 16.118-36 36-36zm117.741 98.023c-28.712 6.779-55.511 12.748-82.14 15.807.851 101.023 12.306 123.052 25.037 155.621 3.617 9.26-.957 19.698-10.217 23.315-9.261 3.617-19.699-.957-23.316-10.217-8.705-22.308-17.086-40.636-22.261-78.549h-9.686c-5.167 37.851-13.534 56.208-22.262 78.549-3.615 9.255-14.05 13.836-23.315 10.217-9.26-3.617-13.834-14.056-10.217-23.315 12.713-32.541 24.185-54.541 25.037-155.621-26.629-3.058-53.428-9.027-82.141-15.807-8.6-2.031-13.926-10.648-11.895-19.249s10.647-13.926 19.249-11.895c96.686 22.829 124.283 22.783 220.775 0 8.599-2.03 17.218 3.294 19.249 11.895 2.029 8.601-3.297 17.219-11.897 19.249z" style="fill:#333;fill-opacity:1"/><path style="fill:#f6f6f6;fill-opacity:1;stroke-width:13.7607" d="M260.534 101.063c-22.799 0-44.153 19.51-42.22 40.366 2.149 23.17 5.451 25.419 16.215 33.674 7.687 5.895 15.217 4.82 23.675 4.97 8.585-.641 15.91-4.903 16.225-5.176 10.788-9.313 17.683-12.743 32.727-12.864 12.637-.108 22.234-3.725 29.904-7.142 30.215-13.456 25.729-26.914 7.912-26.914-3.982 0-19.87 6.338-42.219 0-13.454-3.808-13.341-26.914-42.219-26.914zm7.04 23.554c5.826 0 10.56 4.52 10.56 10.09 0 5.571-4.734 10.092-10.56 10.092-5.826 0-10.55-4.52-10.55-10.091 0-5.57 4.724-10.091 10.55-10.091z"/></svg>