<svg xmlns="http://www.w3.org/2000/svg" version="1.1" xmlns:xlink="http://www.w3.org/1999/xlink" xmlns:svgjs="http://svgjs.com/svgjs" width="1440" height="560" preserveAspectRatio="none" viewBox="0 0 1440 560"><g mask="url(&quot;#SvgjsMask1050&quot;)" fill="none"><rect width="1440" height="560" x="0" y="0" fill="url(#SvgjsLinearGradient1051)"></rect><path d="M0 0L120.08 0L0 194.7z" fill="rgba(255, 255, 255, .1)"></path><path d="M0 194.7L120.08 0L779.85 0L0 295.65999999999997z" fill="rgba(255, 255, 255, .075)"></path><path d="M0 295.65999999999997L779.85 0L834.85 0L0 420.81999999999994z" fill="rgba(255, 255, 255, .05)"></path><path d="M0 420.81999999999994L834.85 0L896.4300000000001 0L0 450.54999999999995z" fill="rgba(255, 255, 255, .025)"></path><path d="M1440 560L966.0699999999999 560L1440 425.32z" fill="rgba(0, 0, 0, .1)"></path><path d="M1440 425.32L966.0699999999999 560L533.6999999999999 560L1440 385.03999999999996z" fill="rgba(0, 0, 0, .075)"></path><path d="M1440 385.03999999999996L533.7 560L364.21000000000004 560L1440 349.80999999999995z" fill="rgba(0, 0, 0, .05)"></path><path d="M1440 349.81L364.21000000000004 560L146.85000000000002 560L1440 115.6z" fill="rgba(0, 0, 0, .025)"></path></g><defs><mask id="SvgjsMask1050"><rect width="1440" height="560" fill="#ffffff"></rect></mask><linearGradient x1="50%" y1="0%" x2="50%" y2="100%" gradientUnits="userSpaceOnUse" id="SvgjsLinearGradient1051"><stop stop-color="rgba(27, 26, 26, 1)" offset="0.01"></stop><stop stop-color="rgba(43, 42, 42, 1)" offset="1"></stop></linearGradient></defs></svg>