<?xml version="1.0" encoding="UTF-8"?>
<svg xmlns="http://www.w3.org/2000/svg" viewBox="0 0 24 24">
    <path d="M 15 3 C 13.38 3 12 4.444 12 6 C 12 7.701 13 7.783 13 10 C 13 13.121 10.695 15 5 15 C 4.241 15 4 15.336 4 16 C 3.353 16 3 16.138 3 17 C 3 17.848 5.551 18.834 6 19 C 6.858149 19.318025 7.8930538 19.602238 9 19.8125 L 9 20.4375 L 9 21.34375 L 9 22 L 14 22 L 14 21.34375 L 11 20.4375 L 11 20.09375 C 11.623734 20.152734 12.273 20.1875 12.90625 20.1875 C 18.18925 20.1875 19 17.854 19 16 C 19 12.367 16 11.162 16 9 C 16 7.968 17.2435 7.54025 18.3125 7.53125 C 19.2105 7.52325 19.8925 7.254 20.4375 7 C 22.5845 6 22.266 5 21 5 C 20.717 5 19.588 5.471 18 5 C 17.044 4.717 17.052 3 15 3 z M 15.5 4.75 C 15.914 4.75 16.25 5.086 16.25 5.5 C 16.25 5.914 15.914 6.25 15.5 6.25 C 15.086 6.25 14.75 5.914 14.75 5.5 C 14.75 5.086 15.086 4.75 15.5 4.75 z"/>
</svg>