<?xml version="1.0" encoding="UTF-8" standalone="no"?>
<svg
   xmlns:dc="http://purl.org/dc/elements/1.1/"
   xmlns:cc="http://creativecommons.org/ns#"
   xmlns:rdf="http://www.w3.org/1999/02/22-rdf-syntax-ns#"
   xmlns:svg="http://www.w3.org/2000/svg"
   xmlns="http://www.w3.org/2000/svg"
   xmlns:sodipodi="http://sodipodi.sourceforge.net/DTD/sodipodi-0.dtd"
   xmlns:inkscape="http://www.inkscape.org/namespaces/inkscape"
   viewBox="0 0 1020 1020"
   version="1.1"
   id="svg160"
   sodipodi:docname="Optimal-Accessibility-Frontend-Logo.svg"
   inkscape:version="1.0.2 (e86c8708, 2021-01-15)"
   width="1020"
   height="1020">
  <metadata
     id="metadata166">
    <rdf:RDF>
      <cc:Work
         rdf:about="">
        <dc:format>image/svg+xml</dc:format>
        <dc:type
           rdf:resource="http://purl.org/dc/dcmitype/StillImage" />
        <dc:title></dc:title>
      </cc:Work>
    </rdf:RDF>
  </metadata>
  <defs
     id="defs164" />
  <sodipodi:namedview
     pagecolor="#ffffff"
     bordercolor="#666666"
     borderopacity="1"
     objecttolerance="10"
     gridtolerance="10"
     guidetolerance="10"
     inkscape:pageopacity="0"
     inkscape:pageshadow="2"
     inkscape:window-width="2560"
     inkscape:window-height="1052"
     id="namedview162"
     showgrid="false"
     inkscape:zoom="0.61821188"
     inkscape:cx="442.5286"
     inkscape:cy="467.8278"
     inkscape:window-x="0"
     inkscape:window-y="0"
     inkscape:window-maximized="1"
     inkscape:current-layer="svg160" />
  <g
     id="g1598">
    <g
       id="g1353"
       transform="matrix(1.7555654,0,0,1.7557102,-677.86003,391.8044)">
      <path
         d="m 420.62531,67.320666 c 0,-141.390005 114.61002,-255.999986 256.00001,-255.999986 141.39,0 256.00004,114.629981 256.00004,255.999986 0,141.370004 -114.62004,256.000004 -256.00004,256.000004 -141.37999,0 -256.00001,-114.61 -256.00001,-256.000004 z"
         fill="#ff352e"
         id="path1302"
         style="fill:#b90504;fill-opacity:1;stroke:#333333;stroke-width:45;stroke-miterlimit:4;stroke-dasharray:none;stroke-opacity:1" />
    </g>
    <g
       id="Layer_2"
       transform="matrix(1.277081,0,0,1.277081,127.66131,126.85643)"
       style="fill:none;stroke:#f6f6f6;stroke-opacity:1">
	<path
   fill="none"
   stroke="#e91e63"
   stroke-width="24"
   stroke-miterlimit="10"
   d="m 371.987,227.641 c 47.628,47.628 85.039,98.708 106.914,143.552 26.358,54.033 30.096,99.722 11.103,118.714 C 470.211,509.7 421.737,505.791 364.273,476.928 320.828,455.107 272.242,417.809 227.031,372.597 180.677,326.243 142.081,277.052 120.364,232.781 92.884,176.758 90.307,129.038 109.721,109.624 c 18.838,-18.839 63.248,-16.056 116.694,9.757 45.159,21.812 97.48,60.167 145.572,108.26 z"
   id="path1463"
   style="fill:none;stroke:#f6f6f6;stroke-opacity:1" />

	<path
   fill="none"
   stroke="#e91e63"
   stroke-width="24"
   stroke-miterlimit="10"
   d="m 272.931,201.125 c 65.052,-17.465 127.989,-24.354 177.767,-20.902 59.974,4.16 101.42,23.747 108.385,49.688 7.259,27.033 -20.345,67.073 -74.054,102.434 -40.608,26.733 -97.189,50.188 -158.941,66.769 C 262.776,416.112 200.881,424.972 151.68,421.667 89.42,417.486 46.796,395.878 39.676,369.361 32.769,343.63 57.364,306.55 106.426,273.147 147.879,244.923 207.243,218.761 272.931,201.125 Z"
   id="path1465"
   style="fill:none;stroke:#f6f6f6;stroke-opacity:1" />

	<path
   fill="none"
   stroke="#e91e63"
   stroke-width="24"
   stroke-miterlimit="10"
   d="m 200.469,273.707 c 17.357,-65.081 42.82,-123.05 70.671,-164.45 33.556,-49.882 71.225,-76.008 97.178,-69.086 27.045,7.212 47.949,51.123 51.76,115.315 2.883,48.533 -5.055,109.266 -21.531,171.046 -16.892,63.341 -40.126,121.389 -67.562,162.365 -34.716,51.852 -74.723,77.988 -101.252,70.913 -25.743,-6.865 -45.584,-46.692 -50.021,-105.881 -3.749,-50.009 3.232,-114.505 20.757,-180.222 z"
   id="path1467"
   style="fill:none;stroke:#f6f6f6;stroke-opacity:1" />

</g>
    <path
       id="path1114"
       style="fill:#f6f6f6;fill-opacity:1;stroke-width:18.6636"
       d="m 479.08539,452.3915 c -30.92149,0 -59.88404,26.46207 -57.26178,54.74772 2.91341,31.4255 7.39217,34.47562 21.9916,45.6718 10.42585,7.99546 20.63902,6.53737 32.10988,6.7416 11.64365,-0.87077 21.57839,-6.65125 22.0063,-7.02065 14.63157,-12.63207 23.98255,-17.28328 44.38692,-17.44751 17.14045,-0.14602 30.15668,-5.05177 40.55919,-9.68714 40.98046,-18.24951 34.89584,-36.5029 10.73141,-36.5029 -5.40171,0 -26.95107,8.59549 -57.26183,0 -18.24732,-5.16464 -18.0946,-36.50292 -57.26169,-36.50292 z m 9.54818,31.94504 c 7.90219,0 14.32248,6.13164 14.32248,13.68691 0,7.5553 -6.42029,13.68692 -14.32248,13.68692 -7.90218,0 -14.30837,-6.13162 -14.30837,-13.68692 0,-7.55527 6.40619,-13.68691 14.30837,-13.68691 z"
       sodipodi:nodetypes="sssccccscssssss" />
  </g>
</svg>
