<?xml version="1.0" encoding="UTF-8" standalone="no"?>
<svg
   xmlns:dc="http://purl.org/dc/elements/1.1/"
   xmlns:cc="http://creativecommons.org/ns#"
   xmlns:rdf="http://www.w3.org/1999/02/22-rdf-syntax-ns#"
   xmlns:svg="http://www.w3.org/2000/svg"
   xmlns="http://www.w3.org/2000/svg"
   xmlns:sodipodi="http://sodipodi.sourceforge.net/DTD/sodipodi-0.dtd"
   xmlns:inkscape="http://www.inkscape.org/namespaces/inkscape"
   viewBox="0 0 1020 1020"
   version="1.1"
   id="svg160"
   sodipodi:docname="Optimal-Accessibility-Backend-Logo.svg"
   inkscape:version="1.0.2 (e86c8708, 2021-01-15)"
   width="1020"
   height="1020">
  <metadata
     id="metadata166">
    <rdf:RDF>
      <cc:Work
         rdf:about="">
        <dc:format>image/svg+xml</dc:format>
        <dc:type
           rdf:resource="http://purl.org/dc/dcmitype/StillImage" />
        <dc:title></dc:title>
      </cc:Work>
    </rdf:RDF>
  </metadata>
  <defs
     id="defs164" />
  <sodipodi:namedview
     pagecolor="#ffffff"
     bordercolor="#666666"
     borderopacity="1"
     objecttolerance="10"
     gridtolerance="10"
     guidetolerance="10"
     inkscape:pageopacity="0"
     inkscape:pageshadow="2"
     inkscape:window-width="2560"
     inkscape:window-height="1052"
     id="namedview162"
     showgrid="false"
     inkscape:zoom="0.53228985"
     inkscape:cx="346.36348"
     inkscape:cy="505.74562"
     inkscape:window-x="0"
     inkscape:window-y="0"
     inkscape:window-maximized="1"
     inkscape:current-layer="svg160" />
  <g
     id="g1327"
     transform="matrix(1.7555654,0,0,1.7557102,79.117927,-50.459369)">
    <g
       id="g1353">
      <path
         d="m -10.562242,319.22088 c 0,-141.39 114.610012,-255.999984 256.000002,-255.999984 141.39,0 256.00004,114.629984 256.00004,255.999984 0,141.37 -114.62004,256 -256.00004,256 -141.37999,0 -256.000002,-114.61 -256.000002,-256 z"
         fill="#ff352e"
         id="path1302"
         style="fill:#b90504;fill-opacity:1;stroke:#333333;stroke-width:45;stroke-miterlimit:4;stroke-dasharray:none;stroke-opacity:1" />
      <g
         id="g1344"
         transform="translate(-10.547383,63.21089)">
        <path
           d="m 354.52,325.12 c -1.81,-17.27 -16.2,-30.84 -33.46,-30.84 a 33.57,33.57 0 0 0 -27.25,14.31 22.23,22.23 0 0 0 -25,15.71 27,27 0 0 0 -13.12,23.14 c 0,14.75 11.72,26.76 26.12,26.76 h 45.3 a 7.14,7.14 0 0 0 0.72,0 c 0.26,0 0.53,0 0.8,0 h 18.13 c 13.55,0 24.58,-11.32 24.58,-25.2 a 25.18,25.18 0 0 0 -16.82,-23.88 z m -7.76,40.66 h -18.32 -0.7 -45.94 c -9.76,0 -17.71,-8.23 -17.71,-18.34 a 18.53,18.53 0 0 1 10.17,-16.55 l 1.83,-0.88 0.43,-2 a 14.12,14.12 0 0 1 13.57,-11.32 13.31,13.31 0 0 1 4.29,0.72 l 3.26,1.09 1.72,-3 a 24.87,24.87 0 0 1 21.69,-12.8 c 13.74,0 25.06,11.56 25.22,25.75 l 0.06,3.41 3.35,0.66 A 16.65,16.65 0 0 1 362.94,349 c 0,9.24 -7.27,16.78 -16.18,16.78 z m 0,0"
           fill="#ffffff"
           id="path1304"
           style="fill:#f6f6f6;fill-opacity:1" />
        <path
           d="m 259.26,314.63 a 34.88,34.88 0 0 1 28.91,-18.91 45.27,45.27 0 0 1 61.57,-3.72 c 0.41,-0.37 0.86,-0.74 1.21,-1.09 v -39.55 c -5.55,3.82 -12.73,7.14 -21.13,10 -17.7,6.2 -42.26,10.54 -73,11.38 q -5.48,0.16 -11,0.16 c -3.65,0 -7.33,-0.06 -11,-0.16 -30.88,-0.86 -55.49,-5.22 -73.19,-11.44 -8.34,-2.81 -15.46,-6.1 -21,-9.89 v 39.55 c 12,12.49 52.12,24 105.14,24 4.6,0 9.06,-0.12 13.45,-0.28 z m 0,0"
           fill="#ffffff"
           id="path1306"
           style="fill:#f6f6f6;fill-opacity:1" />
        <path
           d="m 235.86,259.64 c 1.38,0 2.73,0.08 4.13,0.1 1.91,0 3.86,0 5.81,0 1.95,0 3.9,0 5.81,0 1.4,0 2.78,-0.06 4.15,-0.1 h 1.46 c 47.33,-1.5 82.64,-12.26 93.72,-23.82 v -39.6 c -20.48,14.07 -63.74,21.5 -105.14,21.5 -41.4,0 -84.66,-7.43 -105.14,-21.5 v 39.53 c 11.09,11.58 46.41,22.34 93.72,23.84 h 1.48 z m 0,0"
           fill="#ffffff"
           id="path1308"
           style="fill:#f6f6f6;fill-opacity:1" />
        <path
           d="m 350.94,181.15 v -9.69 a 4,4 0 0 0 -0.55,-1.93 c -4.73,-18.07 -41,-35.92 -104.59,-35.92 -63.41,0 -99.66,17.74 -104.53,35.8 a 4.16,4.16 0 0 0 -0.62,2.05 v 9.69 c 11.93,12.46 51.81,24 105.14,24 53.33,0 93.21,-11.5 105.14,-24 z m 0,0"
           fill="#ffffff"
           id="path1310"
           style="fill:#f6f6f6;fill-opacity:1" />
        <path
           d="m 243.07,347.44 a 39.46,39.46 0 0 1 5.26,-19.55 h -2.52 c -51.91,0 -87.75,-9.63 -105.14,-21.87 v 34.48 a 4,4 0 0 0 0.49,1.91 c 5,20.58 49.41,36 104.65,36 4,0 7.91,-0.11 11.79,-0.27 a 39.56,39.56 0 0 1 -14.52,-30.68 z m 0,0"
           fill="#ffffff"
           id="path1312"
           style="fill:#f6f6f6;fill-opacity:1" />
      </g>
    </g>
  </g>
</svg>
